<?xml version="1.0" encoding="UTF-8" standalone="no"?>
<svg
   xmlns:dc="http://purl.org/dc/elements/1.1/"
   xmlns:cc="http://creativecommons.org/ns#"
   xmlns:rdf="http://www.w3.org/1999/02/22-rdf-syntax-ns#"
   xmlns:svg="http://www.w3.org/2000/svg"
   xmlns="http://www.w3.org/2000/svg"
   xmlns:sodipodi="http://sodipodi.sourceforge.net/DTD/sodipodi-0.dtd"
   xmlns:inkscape="http://www.inkscape.org/namespaces/inkscape"
   version="1.1"
   id="Layer_1"
   x="0px"
   y="0px"
   width="100px"
   height="100px"
   viewBox="0 0 100 100"
   enable-background="new 0 0 100 100"
   xml:space="preserve"
   inkscape:version="0.48.3.1 r9886"
   sodipodi:docname="speaker.svg"><metadata
   id="metadata112"><rdf:RDF><cc:Work
       rdf:about=""><dc:format>image/svg+xml</dc:format><dc:type
         rdf:resource="http://purl.org/dc/dcmitype/StillImage" /></cc:Work></rdf:RDF></metadata><defs
   id="defs110" /><sodipodi:namedview
   pagecolor="#ffffff"
   bordercolor="#666666"
   borderopacity="1"
   objecttolerance="10"
   gridtolerance="10"
   guidetolerance="10"
   inkscape:pageopacity="0"
   inkscape:pageshadow="2"
   inkscape:window-width="1551"
   inkscape:window-height="876"
   id="namedview108"
   showgrid="false"
   inkscape:zoom="2.36"
   inkscape:cx="-24.576271"
   inkscape:cy="50"
   inkscape:window-x="49"
   inkscape:window-y="24"
   inkscape:window-maximized="1"
   inkscape:current-layer="Layer_1" />
<path
   d="m 40.084603,75.7588 c -2.835624,-2.093377 -4.980439,-5.06688 -6.030898,-8.513529 -0.112439,-0.356205 -0.486724,-0.560081 -0.842524,-0.447757 -0.35657,0.108478 -0.560655,0.482378 -0.448216,0.838582 1.139023,3.731306 3.455579,6.947152 6.519161,9.209784 0.120911,0.0877 0.262615,0.131556 0.402009,0.131556 0.207935,0 0.409709,-0.09309 0.541402,-0.271576 0.222567,-0.299274 0.160187,-0.722412 -0.135543,-0.941674 l -0.0053,-0.0054 z"
   id="path3"
   style="fill:#eae3d0;fill-opacity:1"
   inkscape:connector-curvature="0" />

<path
   d="m 49.894535,56.090594 c -3.461741,0.0054 -6.258087,2.803478 -6.264248,6.259359 0.0053,3.454342 2.802507,6.253974 6.264248,6.25936 3.46174,-0.0054 6.260397,-2.805018 6.268098,-6.25936 -0.0077,-3.455881 -2.806358,-6.253975 -6.268098,-6.259359 z"
   id="path104"
   style="fill:#eae3d0;fill-opacity:1"
   inkscape:connector-curvature="0" />
<path
   d="M 72.574131,13.458322 H 27.209549 c -1.970767,0 -3.577261,1.59946 -3.577261,3.575128 v 69.168388 c 0,1.973359 1.606494,3.575128 3.577261,3.575128 h 45.364582 c 1.976927,0 3.584191,-1.601769 3.584191,-3.575128 V 17.03422 c 7.71e-4,-1.97567 -1.606494,-3.575898 -3.584191,-3.575898 z m -22.681906,6.554786 c 3.960015,0 7.164531,3.20123 7.164531,7.156412 0,3.953645 -3.204516,7.152565 -7.164531,7.152565 -3.953085,0 -7.161451,-3.199689 -7.161451,-7.152565 0,-3.955182 3.208366,-7.156412 7.161451,-7.156412 z m 0,62.909028 c -11.372529,0 -20.59254,-9.211322 -20.59254,-20.572183 0,-11.363169 9.220781,-20.569875 20.59254,-20.572183 11.378689,0.0015 20.587919,9.209014 20.59562,20.572183 -0.007,11.361631 -9.216161,20.572183 -20.59562,20.572183 z"
   id="path106"
   style="fill:#eae3d0;fill-opacity:1"
   inkscape:connector-curvature="0" />
</svg>